<?xml version="1.0" encoding="UTF-8" standalone="no"?>
<!-- Created with Inkscape (http://www.inkscape.org/) -->

<svg
   xmlns:dc="http://purl.org/dc/elements/1.1/"
   xmlns:cc="http://creativecommons.org/ns#"
   xmlns:rdf="http://www.w3.org/1999/02/22-rdf-syntax-ns#"
   xmlns:svg="http://www.w3.org/2000/svg"
   xmlns="http://www.w3.org/2000/svg"
   xmlns:sodipodi="http://sodipodi.sourceforge.net/DTD/sodipodi-0.dtd"
   xmlns:inkscape="http://www.inkscape.org/namespaces/inkscape"
   width="210.43161mm"
   height="239.78394mm"
   viewBox="0 0 210.43161 239.78394"
   version="1.1"
   id="svg4608"
   inkscape:version="0.92.3 (2405546, 2018-03-11)"
   sodipodi:docname="Arrow_up.svg">
  <defs
     id="defs4602" />
  <sodipodi:namedview
     id="base"
     pagecolor="#ffffff"
     bordercolor="#666666"
     borderopacity="1.0"
     inkscape:pageopacity="0.0"
     inkscape:pageshadow="2"
     inkscape:zoom="1.4"
     inkscape:cx="179.7954"
     inkscape:cy="459.35713"
     inkscape:document-units="mm"
     inkscape:current-layer="layer1"
     showgrid="true"
     showguides="false"
     inkscape:window-width="3000"
     inkscape:window-height="1875"
     inkscape:window-x="-13"
     inkscape:window-y="-13"
     inkscape:window-maximized="1"
     fit-margin-top="0"
     fit-margin-left="0"
     fit-margin-right="0"
     fit-margin-bottom="0">
    <inkscape:grid
       type="xygrid"
       id="grid4689"
       originx="0.032776535"
       originy="-56.878424" />
  </sodipodi:namedview>
  <metadata
     id="metadata4605">
    <rdf:RDF>
      <cc:Work
         rdf:about="">
        <dc:format>image/svg+xml</dc:format>
        <dc:type
           rdf:resource="http://purl.org/dc/dcmitype/StillImage" />
        <dc:title></dc:title>
      </cc:Work>
    </rdf:RDF>
  </metadata>
  <g
     inkscape:label="Ebene 1"
     inkscape:groupmode="layer"
     id="layer1"
     transform="translate(0.03277654,-0.33764431)">
    <path
       sodipodi:type="star"
       style="fill:#ff0000;stroke-width:0.26458332"
       id="path4693"
       sodipodi:sides="3"
       sodipodi:cx="37.041664"
       sodipodi:cy="43"
       sodipodi:r1="42.662777"
       sodipodi:r2="21.331388"
       sodipodi:arg1="2.6224465"
       sodipodi:arg2="3.6696441"
       inkscape:flatsided="false"
       inkscape:rounded="0.05"
       inkscape:randomized="0"
       d="M 1.4480641e-6,64.166666 C -0.91654204,62.562715 17.685023,33.847881 18.615814,32.252155 19.546604,30.65643 35.384291,0.32942034 37.231625,0.33764597 39.078959,0.34587159 54.645952,30.812717 55.562496,32.416668 56.479039,34.020619 74.824157,62.899962 73.893366,64.495688 72.962576,66.091413 38.794017,64.339403 36.946683,64.331177 35.099349,64.322951 0.91654488,65.770617 1.4480641e-6,64.166666 Z"
       inkscape:transform-center-x="0.26813395"
       inkscape:transform-center-y="-24.891527"
       transform="matrix(2.8449818,0,0,2.4289067,0.06047212,-0.48246217)" />
    <rect
       style="fill:#ff0000;stroke-width:0.76150799"
       id="rect4695"
       width="79.037148"
       height="92.446037"
       x="67.806602"
       y="147.66855" />
    <path
       style="fill:#00ff00;stroke:#00ff00;stroke-width:0.71428573"
       d="M 256.45724,749.65312 V 592.11726 l -34.82143,0.57157 C 165.5965,593.60869 50.538372,593.37414 34.314381,592.30698 12.981228,590.90374 3.1043387,589.44832 1.0632289,587.40722 -0.51999049,585.82399 0.19193915,583.17812 4.6775341,573.97469 19.548779,543.46227 69.121448,472.22075 174.66118,329.68898 202.48075,292.11856 200.93099,294.34833 216.11465,270.04613 291.09047,150.04354 340.76147,74.361769 371.5204,33.260412 389.31501,9.4825175 397.7508,0.65546512 401.53294,1.8558668 c 7.38152,2.3428048 33.25416,36.8799302 71.33298,95.2216732 29.05129,44.51038 56.62027,88.46193 110.73622,176.54001 11.49677,18.71192 18.71005,29.23438 42.84454,62.5 63.5236,87.55737 93.1902,129.53336 123.69527,175.01932 30.37214,45.2877 46.1605,73.0564 44.50428,78.27457 -0.888,2.79793 -10.85121,4.39609 -34.97471,5.61021 -27.40521,1.37928 -128.11156,0.79174 -189.10714,-1.1033 l -15.53572,-0.48266 V 750.31234 907.18898 H 405.74295 256.45724 Z"
       id="path1953"
       inkscape:connector-curvature="0"
       transform="scale(0.26458333)" />
    <path
       style="fill:#00ff00;stroke:#00ff00;stroke-width:0.71428573"
       d="M 256.45724,749.66848 V 592.14793 l -32.67857,0.47641 c -65.39469,0.95336 -182.309767,0.48963 -195.535717,-0.77557 -1.964286,-0.1879 -5.5,-0.50075 -7.857143,-0.69521 -4.951033,-0.40845 -9.235998,-0.94222 -11.7857142,-1.46813 -0.9821428,-0.20258 -2.7442871,-0.54346 -3.9158765,-0.75751 -1.1715892,-0.21405 -2.7105519,-0.91443 -3.4199172,-1.5564 -1.64551145,-1.48917 -1.22697581,-3.5134 2.3106833,-11.17554 C 16.504105,548.19309 64.132651,479.28366 164.32761,343.61755 200.42727,294.73785 201.51576,293.1662 223.20268,258.60895 295.13464,143.98824 340.16947,75.517469 370.01029,35.403269 383.9692,16.6387 393.32666,5.6851876 397.47493,3.2541397 c 2.96912,-1.7400219 3.31327,-1.7927285 5.23083,-0.801115 4.61823,2.3881785 16.38623,16.5386733 32.45164,39.0216733 28.3474,39.671214 68.86308,102.756652 134.86935,210.000002 27.42303,44.55544 25.00797,41.00748 76.09168,111.78571 50.7188,70.27262 73.96195,103.24369 100.45638,142.5 26.45599,39.19933 43.97492,68.43431 47.41864,79.13026 1.1475,3.56406 1.14635,3.84876 -0.0207,5.13809 -1.12714,1.24546 -3.361,2.04786 -7.15857,2.57132 -17.5015,2.41246 -30.24564,2.80319 -91.42857,2.80319 -59.45891,0 -133.28797,-1.12352 -138.73493,-2.11124 l -1.622,-0.29416 V 750.09341 907.18898 H 405.74295 256.45724 Z"
       id="path1955"
       inkscape:connector-curvature="0"
       transform="scale(0.26458333)" />
  </g>
</svg>
